{"title":"An American Christmas Carol (1979) DVDRip","uid":9365127,"size":692718595,"categoryP":"video","categoryS":"movies","magnet":"?xt=urn:btih:036504d5f14f834dc308613f168da826b4b963bb&amp;dn=An+American+Christmas+Carol+%281979%29+DVDRip&amp;tr=udp%3A%2F%2Ftracker.openbittorrent.com%3A80&amp;tr=udp%3A%2F%2Fopen.demonii.com%3A1337&amp;tr=udp%3A%2F%2Ftracker.coppersurfer.tk%3A6969&amp;tr=udp%3A%2F%2Fexodus.desync.com%3A6969","seeders":2,"leechers":1,"uploader":"7","files":1,"time":1387395303,"description":"Genre\tDrama, Fantasy\nActors\tHenry Winkler, Dorian Harewood, Susan Hogan\nPlot\tIn Depression-era New England, a miserly businessman named Benedict Slade receives a long-overdue attitude...\nIMDB link\t\n &lt;a href=&quot;\nhttp://www.imdb.com/title/tt0078764/&quot; rel=&quot;nofollow&quot; target=&quot;_NEW&quot;&gt;\nhttp://www.imdb.com/title/tt0078764/&lt;/a&gt;\n\nGeneral\nComplete name                            : An American Christmas Carol (1979).avi\nFormat                                   : AVI\nFormat/Info                              : Audio Video Interleave\nFile size                                : 661 MiB\nDuration                                 : 1h 37mn\nOverall bit rate                         : 951 Kbps\n\nVideo\nID                                       : 0\nFormat                                   : MPEG-4 Visual\nFormat settings, BVOP                    : 1\nFormat settings, QPel                    : No\nFormat settings, GMC                     : No warppoints\nFormat settings, Matrix                  : Default (H.263)\nMuxing mode                              : Packed bitstream\nCodec ID                                 : DX50\nCodec ID/Hint                            : DivX 5\nDuration                                 : 1h 37mn\nBit rate                                 : 780 Kbps\nWidth                                    : 720 pixels\nHeight                                   : 480 pixels\nDisplay aspect ratio                     : 3:2\nFrame rate                               : 29.970 fps\nStandard                                 : NTSC\nColor space                              : YUV\nChroma subsampling                       : 4:2:0\nBit depth                                : 8 bits\nScan type                                : Progressive\nCompression mode                         : Lossy\nBits/(Pixel*Frame)                       : 0.075\nStream size                              : 541 MiB (82%)\nWriting library                          : DivX 6.8.3-6.8.4 (UTC 2008-06-07)\n\nAudio\nID                                       : 1\nFormat                                   : MPEG Audio\nFormat version                           : Version 1\nFormat profile                           : Layer 3\nCodec ID                                 : 55\nCodec ID/Hint                            : MP3\nDuration                                 : 1h 37mn\nBit rate mode                            : Constant\nBit rate                                 : 160 Kbps\nChannel(s)                               : 2 channels\nSampling rate                            : 48.0 KHz\nCompression mode                         : Lossy\nDelay relative to video                  : 24ms\nStream size                              : 111 MiB (17%)\nAlignment                                : Split accross interleaves\nInterleave, duration                     : 33 ms (1.00 video frame)\nInterleave, preload duration             : 24 ms\nTitle                                    : Audio Stream\nWriting library                          : LAME3.92\n &lt;a href=&quot;\nhttp://lookpic.com/O/i2/1746/LvOEh72t.jpeg&quot; rel=&quot;nofollow&quot; target=&quot;_NEW&quot;&gt;\nhttp://lookpic.com/O/i2/1746/LvOEh72t.jpeg&lt;/a&gt;","torrent":{"xt":"urn:btih:036504d5f14f834dc308613f168da826b4b963bb","amp;dn":"An+American+Christmas+Carol+%281979%29+DVDRip","amp;tr":["udp%3A%2F%2Ftracker.openbittorrent.com%3A80","udp%3A%2F%2Fopen.demonii.com%3A1337","udp%3A%2F%2Ftracker.coppersurfer.tk%3A6969","udp%3A%2F%2Fexodus.desync.com%3A6969"],"infoHash":"036504d5f14f834dc308613f168da826b4b963bb","infoHashBuffer":{"type":"Buffer","data":[3,101,4,213,241,79,131,77,195,8,97,63,22,141,168,38,180,185,99,187]},"announce":[],"urlList":[]}}